<svg viewBox="0 0 48 48" fill="none" xmlns="http://www.w3.org/2000/svg">
<path opacity="1.0" fill-rule="evenodd" clip-rule="evenodd" d="M0 24C0 10.7452 10.7452 0 24 0C37.2549 0 48 10.7452 48 24C48 37.2549 37.2549 48 24 48C10.7452 48 0 37.2549 0 24Z" fill="black"/>
<path d="M29.1154 26.2354L29.8151 21.6553H25.4384V18.6845C25.4384 17.4312 26.0487 16.2087 28.009 16.2087H30V12.3095C30 12.3095 28.1939 12 26.4679 12C22.8616 12 20.5068 14.1941 20.5068 18.1646V21.6553H16.5V26.2354H20.5068V37.3081C21.3113 37.435 22.1342 37.5 22.9726 37.5C23.811 37.5 24.6339 37.435 25.4384 37.3081V26.2354H29.1154Z" fill="white"/>
</svg>
