<svg viewBox="0 0 48 48" fill="none" xmlns="http://www.w3.org/2000/svg">
<path opacity="1.0" fill-rule="evenodd" clip-rule="evenodd" d="M0 24C0 10.7452 10.7452 0 24 0C37.2549 0 48 10.7452 48 24C48 37.2549 37.2549 48 24 48C10.7452 48 0 37.2549 0 24Z" fill="black"/>
<path fill-rule="evenodd" clip-rule="evenodd" d="M24.0014 11.2002C20.5251 11.2002 20.0888 11.2154 18.7235 11.2775C17.3607 11.3399 16.4306 11.5557 15.6168 11.8722C14.7749 12.1991 14.0608 12.6365 13.3493 13.3482C12.6373 14.0597 12.1999 14.7738 11.8719 15.6155C11.5546 16.4296 11.3386 17.36 11.2773 18.7222C11.2162 20.0875 11.2002 20.524 11.2002 24.0004C11.2002 27.4766 11.2157 27.9116 11.2775 29.2769C11.3402 30.6397 11.5559 31.5698 11.8722 32.3836C12.1994 33.2255 12.6367 33.9397 13.3485 34.6511C14.0597 35.3632 14.7738 35.8015 15.6152 36.1285C16.4295 36.445 17.36 36.6607 18.7224 36.7231C20.0877 36.7853 20.5238 36.8005 23.9997 36.8005C27.4764 36.8005 27.9113 36.7853 29.2766 36.7231C30.6393 36.6607 31.5705 36.445 32.3849 36.1285C33.2265 35.8015 33.9396 35.3632 34.6508 34.6511C35.3628 33.9397 35.8002 33.2255 36.1281 32.3839C36.4428 31.5698 36.6588 30.6394 36.7229 29.2772C36.7842 27.9119 36.8001 27.4766 36.8001 24.0004C36.8001 20.524 36.7842 20.0878 36.7229 18.7225C36.6588 17.3597 36.4428 16.4296 36.1281 15.6157C35.8002 14.7738 35.3628 14.0597 34.6508 13.3482C33.9389 12.6362 33.2268 12.1989 32.3841 11.8722C31.5681 11.5557 30.6375 11.3399 29.2748 11.2775C27.9095 11.2154 27.4748 11.2002 23.9973 11.2002H24.0014ZM22.8531 13.5069C23.1939 13.5063 23.5742 13.5069 24.0014 13.5069C27.419 13.5069 27.824 13.5191 29.1737 13.5805C30.4217 13.6375 31.0991 13.846 31.5503 14.0213C32.1476 14.2533 32.5734 14.5306 33.0212 14.9786C33.4692 15.4267 33.7466 15.8533 33.9791 16.4506C34.1543 16.9013 34.3631 17.5786 34.4198 18.8267C34.4811 20.176 34.4945 20.5813 34.4945 23.9974C34.4945 27.4135 34.4811 27.8188 34.4198 29.168C34.3628 30.4162 34.1543 31.0934 33.9791 31.5442C33.747 32.1415 33.4692 32.5669 33.0212 33.0145C32.5731 33.4625 32.1479 33.7399 31.5503 33.9719C31.0995 34.1479 30.4217 34.3559 29.1737 34.4129C27.8243 34.4743 27.419 34.4876 24.0014 34.4876C20.5835 34.4876 20.1783 34.4743 18.8291 34.4129C17.5809 34.3553 16.9037 34.1468 16.4522 33.9716C15.8549 33.7396 15.4281 33.4622 14.9802 33.0143C14.5322 32.5663 14.2548 32.1407 14.0223 31.5431C13.8471 31.0924 13.6383 30.415 13.5815 29.167C13.5202 27.8177 13.5079 27.4123 13.5079 23.9942C13.5079 20.576 13.5202 20.1728 13.5815 18.8234C13.6386 17.5754 13.8471 16.8982 14.0223 16.4468C14.2543 15.8495 14.5322 15.4229 14.9802 14.9749C15.4281 14.5269 15.8549 14.2495 16.4522 14.017C16.9034 13.841 17.5809 13.633 18.8291 13.5757C20.0099 13.5223 20.4674 13.5063 22.8531 13.5037V13.5069ZM30.8339 15.6322C29.9859 15.6322 29.2979 16.3195 29.2979 17.1677C29.2979 18.0157 29.9859 18.7037 30.8339 18.7037C31.682 18.7037 32.37 18.0157 32.37 17.1677C32.37 16.3198 31.682 15.6322 30.8339 15.6322ZM24.0014 17.4269C20.3712 17.4269 17.4281 20.3701 17.4281 24.0004C17.4281 27.6305 20.3712 30.5723 24.0014 30.5723C27.6315 30.5723 30.5738 27.6305 30.5738 24.0004C30.5738 20.3701 27.6315 17.4269 24.0014 17.4269ZM24.0014 19.7336C26.3577 19.7336 28.2681 21.6437 28.2681 24.0004C28.2681 26.3566 26.3577 28.267 24.0014 28.267C21.6449 28.267 19.7346 26.3566 19.7346 24.0004C19.7346 21.6437 21.6449 19.7336 24.0014 19.7336Z" fill="white"/>
</svg>
