<svg viewBox="0 0 48 48" fill="none" xmlns="http://www.w3.org/2000/svg">
<path opacity="1.0" fill-rule="evenodd" clip-rule="evenodd" d="M0 24C0 10.7452 10.7452 0 24 0C37.2549 0 48 10.7452 48 24C48 37.2549 37.2549 48 24 48C10.7452 48 0 37.2549 0 24Z" fill="black"/>
<path d="M17.319 14.8227C17.2836 13.2204 16.1378 12 14.2772 12C12.4166 12 11.2002 13.2204 11.2002 14.8227C11.2002 16.3919 12.3807 17.6474 14.2066 17.6474H14.2414C16.1378 17.6474 17.319 16.3919 17.319 14.8227Z" fill="white"/>
<path d="M16.9604 19.8779H11.5215V36.2195H16.9604V19.8779Z" fill="white"/>
<path d="M30.3128 19.4941C33.8918 19.4941 36.575 21.8302 36.575 26.8497L36.5748 36.2196H31.1361V27.4767C31.1361 25.2807 30.3491 23.7822 28.3802 23.7822C26.8775 23.7822 25.9824 24.7924 25.5894 25.7682C25.4456 26.1178 25.4103 26.605 25.4103 27.0934V36.22H19.9707C19.9707 36.22 20.0424 21.4117 19.9707 19.8783H25.4103V22.1929C26.1321 21.0802 27.425 19.4941 30.3128 19.4941Z" fill="white"/>
</svg>
